<svg version="1.1" xmlns="http://www.w3.org/2000/svg" viewBox="0 0 1347 772.0000000000002" width="1347" height="772.0000000000002" filter="invert(93%) hue-rotate(180deg)">
  <!-- svg-source:excalidraw -->
  
  <defs>
    <style class="style-fonts">
      @font-face {
        font-family: "Virgil";
        src: url("https://excalidraw.com/Virgil.woff2");
      }
      @font-face {
        font-family: "Cascadia";
        src: url("https://excalidraw.com/Cascadia.woff2");
      }
      @font-face {
        font-family: "Assistant";
        src: url("https://excalidraw.com/Assistant-Regular.woff2");
      }
    </style>
    
  </defs>
  <rect x="0" y="0" width="1347" height="772.0000000000002" fill="#ffffff"></rect><g stroke-linecap="round" transform="translate(10 10) rotate(0 663.5 376.0000000000001)"><path d="M32 0 C530.88 -2.2, 1030.65 -2.84, 1295 0 M32 0 C474.09 -1.9, 915.44 -1.9, 1295 0 M1295 0 C1317.37 -1.32, 1325.36 11.58, 1327 32 M1295 0 C1317.88 -0.56, 1325.67 11.72, 1327 32 M1327 32 C1324.78 190.09, 1324.64 348.41, 1327 720 M1327 32 C1324.93 277.28, 1325.03 521.75, 1327 720 M1327 720 C1326.36 743.22, 1318.07 753.52, 1295 752 M1327 720 C1329.16 740.28, 1315.32 752.46, 1295 752 M1295 752 C850.7 750.54, 406.95 751.22, 32 752 M1295 752 C1010.71 749.5, 727.18 750.04, 32 752 M32 752 C9.53 750.99, 1.6 742.35, 0 720 M32 752 C11.67 754.11, 1.84 743.06, 0 720 M0 720 C-0.42 571.36, -0.42 424.02, 0 32 M0 720 C0.84 569.03, 0.89 418.65, 0 32 M0 32 C1.52 10.7, 11.65 -0.28, 32 0 M0 32 C0.9 12.93, 8.98 -0.07, 32 0" stroke="#1e1e1e" stroke-width="2" fill="none"></path></g><g transform="translate(67 48) rotate(0 170.4250030517578 16.5)"><text x="0" y="0" font-family="Virgil, Segoe UI Emoji" font-size="26.400000000000006px" fill="#1e1e1e" text-anchor="start" style="white-space: pre;" direction="ltr" dominant-baseline="text-before-edge">Chore Management System</text></g><g stroke-linecap="round" transform="translate(530 300) rotate(0 154.5 21)"><path d="M10.5 0 C104.13 3.48, 196.96 3, 298.5 0 M10.5 0 C88.98 2.56, 166.8 2.39, 298.5 0 M298.5 0 C307.45 -0.04, 310.28 2.19, 309 10.5 M298.5 0 C306.05 1.34, 306.79 4.03, 309 10.5 M309 10.5 C308.05 14.35, 308.24 21.13, 309 31.5 M309 10.5 C309.41 18.64, 309.2 27.26, 309 31.5 M309 31.5 C307.59 37.01, 304.72 43.92, 298.5 42 M309 31.5 C307.16 37.17, 305.03 41.11, 298.5 42 M298.5 42 C239.4 41.99, 181.96 42.54, 10.5 42 M298.5 42 C236.61 41.16, 176.15 41.43, 10.5 42 M10.5 42 C3.38 43.66, -1.35 37.97, 0 31.5 M10.5 42 C4.41 42.42, 2.12 36.21, 0 31.5 M0 31.5 C1.77 26.35, 0.1 22.16, 0 10.5 M0 31.5 C0.54 25.79, -0.06 19.97, 0 10.5 M0 10.5 C0.97 2.52, 1.77 0.74, 10.5 0 M0 10.5 C0.32 1.79, 5.51 0.7, 10.5 0" stroke="#1e1e1e" stroke-width="2" fill="none"></path></g><g stroke-linecap="round" transform="translate(530 371) rotate(0 154.5 21)"><path d="M10.5 0 C124.06 0.09, 235.57 -0.51, 298.5 0 M10.5 0 C118.48 2.85, 226.75 2.8, 298.5 0 M298.5 0 C307.2 1.13, 308.91 2.01, 309 10.5 M298.5 0 C303.77 -0.95, 307.02 3.06, 309 10.5 M309 10.5 C307.1 14.4, 310.88 18.51, 309 31.5 M309 10.5 C309.74 18.75, 309.05 24.68, 309 31.5 M309 31.5 C308.57 36.84, 306.53 41.46, 298.5 42 M309 31.5 C310.01 38.91, 306.17 42.12, 298.5 42 M298.5 42 C204.33 44.52, 111.58 44.9, 10.5 42 M298.5 42 C192.95 41.47, 88.52 42.03, 10.5 42 M10.5 42 C2.73 41.44, -1.25 37.08, 0 31.5 M10.5 42 C3.2 39.71, -1 36.8, 0 31.5 M0 31.5 C0.08 25.42, 1.04 15.35, 0 10.5 M0 31.5 C-0.23 25.33, 0.76 20.36, 0 10.5 M0 10.5 C-0.99 2.08, 4.42 -1.82, 10.5 0 M0 10.5 C0.04 4.64, 3.08 0.74, 10.5 0" stroke="#1e1e1e" stroke-width="2" fill="none"></path></g><g stroke-linecap="round" transform="translate(589 442) rotate(0 89.5 21)"><path d="M10.5 0 C63.09 -0.73, 111.64 2.11, 168.5 0 M10.5 0 C61.36 -1.83, 111.69 -1.51, 168.5 0 M168.5 0 C175.06 0.2, 180.05 1.59, 179 10.5 M168.5 0 C174.71 -1.74, 179.07 1.5, 179 10.5 M179 10.5 C177.64 18.73, 180.89 27.41, 179 31.5 M179 10.5 C178.3 18.37, 178.6 27.24, 179 31.5 M179 31.5 C178.45 36.64, 176.96 40.71, 168.5 42 M179 31.5 C178.98 37.92, 175.12 42.28, 168.5 42 M168.5 42 C128.44 39.66, 90.83 39.37, 10.5 42 M168.5 42 C120.16 42.28, 72.76 43.96, 10.5 42 M10.5 42 C3.32 43.27, 0.88 38.06, 0 31.5 M10.5 42 C1.57 43.8, -1.27 39.37, 0 31.5 M0 31.5 C-2.07 23.05, -1.98 17.03, 0 10.5 M0 31.5 C-1.03 25.6, -0.5 19.87, 0 10.5 M0 10.5 C0.38 3.14, 4.05 0.45, 10.5 0 M0 10.5 C-0.55 5.69, 4.91 -2.24, 10.5 0" stroke="#1e1e1e" stroke-width="2" fill="none"></path></g><g transform="translate(641 242) rotate(0 29.84166717529297 15.97222227882682)"><text x="0" y="0" font-family="Virgil, Segoe UI Emoji" font-size="25.55555564612292px" fill="#1e1e1e" text-anchor="start" style="white-space: pre;" direction="ltr" dominant-baseline="text-before-edge">Login</text></g><g transform="translate(548 313) rotate(0 24.566667556762695 12.5)"><text x="0" y="0" font-family="Virgil, Segoe UI Emoji" font-size="20px" fill="#1e1e1e" text-anchor="start" style="white-space: pre;" direction="ltr" dominant-baseline="text-before-edge">Email</text></g><g transform="translate(550 377) rotate(0 45.766666412353516 12.5)"><text x="0" y="0" font-family="Virgil, Segoe UI Emoji" font-size="20px" fill="#1e1e1e" text-anchor="start" style="white-space: pre;" direction="ltr" dominant-baseline="text-before-edge">Password</text></g><g transform="translate(643 451) rotate(0 29.808332443237305 12.5)"><text x="0" y="0" font-family="Virgil, Segoe UI Emoji" font-size="20px" fill="#1e1e1e" text-anchor="start" style="white-space: pre;" direction="ltr" dominant-baseline="text-before-edge">Sign in</text></g><g transform="translate(563 520) rotate(0 120.69999694824219 11.028870875398809)"><text x="0" y="0" font-family="Virgil, Segoe UI Emoji" font-size="17.646193400638136px" fill="#1e1e1e" text-anchor="start" style="white-space: pre;" direction="ltr" dominant-baseline="text-before-edge">New here?, register with us.</text></g></svg>