<svg version="1.1" xmlns="http://www.w3.org/2000/svg" viewBox="0 0 1347 1038.0000000000002" width="1347" height="1038.0000000000002" filter="invert(93%) hue-rotate(180deg)">
  <!-- svg-source:excalidraw -->
  
  <defs>
    <style class="style-fonts">
      @font-face {
        font-family: "Virgil";
        src: url("https://excalidraw.com/Virgil.woff2");
      }
      @font-face {
        font-family: "Cascadia";
        src: url("https://excalidraw.com/Cascadia.woff2");
      }
      @font-face {
        font-family: "Assistant";
        src: url("https://excalidraw.com/Assistant-Regular.woff2");
      }
    </style>
    
  </defs>
  <rect x="0" y="0" width="1347" height="1038.0000000000002" fill="#ffffff"></rect><g stroke-linecap="round" transform="translate(10 10) rotate(0 663.5 509.0000000000001)"><path d="M32 0 C530.88 -2.2, 1030.65 -2.84, 1295 0 M32 0 C474.09 -1.9, 915.44 -1.9, 1295 0 M1295 0 C1317.37 -1.32, 1325.36 11.58, 1327 32 M1295 0 C1317.88 -0.56, 1325.67 11.72, 1327 32 M1327 32 C1323.81 251.36, 1323.67 470.96, 1327 986 M1327 32 C1324.21 371.97, 1324.3 711.12, 1327 986 M1327 986 C1326.36 1009.22, 1318.07 1019.52, 1295 1018 M1327 986 C1329.16 1006.28, 1315.32 1018.46, 1295 1018 M1295 1018 C850.7 1016.54, 406.95 1017.22, 32 1018 M1295 1018 C1010.71 1015.5, 727.18 1016.04, 32 1018 M32 1018 C9.53 1016.99, 1.6 1008.35, 0 986 M32 1018 C11.67 1020.11, 1.84 1009.06, 0 986 M0 986 C-0.35 780.1, -0.35 575.5, 0 32 M0 986 C1.21 776.77, 1.27 568.11, 0 32 M0 32 C1.52 10.7, 11.65 -0.28, 32 0 M0 32 C0.9 12.93, 8.98 -0.07, 32 0" stroke="#1e1e1e" stroke-width="2" fill="none"></path></g><g transform="translate(67 48) rotate(0 170.4250030517578 16.5)"><text x="0" y="0" font-family="Virgil, Segoe UI Emoji" font-size="26.400000000000006px" fill="#1e1e1e" text-anchor="start" style="white-space: pre;" direction="ltr" dominant-baseline="text-before-edge">Chore Management System</text></g><g stroke-linecap="round" transform="translate(316 227) rotate(0 154.49999999999994 21)"><path d="M10.5 0 C104.13 3.48, 196.96 3, 298.5 0 M10.5 0 C88.98 2.56, 166.8 2.39, 298.5 0 M298.5 0 C307.45 -0.04, 310.28 2.19, 309 10.5 M298.5 0 C306.05 1.34, 306.79 4.03, 309 10.5 M309 10.5 C308.05 14.35, 308.24 21.13, 309 31.5 M309 10.5 C309.41 18.64, 309.2 27.26, 309 31.5 M309 31.5 C307.59 37.01, 304.72 43.92, 298.5 42 M309 31.5 C307.16 37.17, 305.03 41.11, 298.5 42 M298.5 42 C239.4 41.99, 181.96 42.54, 10.5 42 M298.5 42 C236.61 41.16, 176.15 41.43, 10.5 42 M10.5 42 C3.38 43.66, -1.35 37.97, 0 31.5 M10.5 42 C4.41 42.42, 2.12 36.21, 0 31.5 M0 31.5 C1.77 26.35, 0.1 22.16, 0 10.5 M0 31.5 C0.54 25.79, -0.06 19.97, 0 10.5 M0 10.5 C0.97 2.52, 1.77 0.74, 10.5 0 M0 10.5 C0.32 1.79, 5.51 0.7, 10.5 0" stroke="#1e1e1e" stroke-width="2" fill="none"></path></g><g stroke-linecap="round" transform="translate(450 702) rotate(0 154.5 21)"><path d="M10.5 0 C88.76 2.13, 170.75 1.66, 298.5 0 M10.5 0 C107.13 0.29, 203.22 0.97, 298.5 0 M298.5 0 C306.5 1.72, 307.4 2.17, 309 10.5 M298.5 0 C304.81 0.15, 310.95 2, 309 10.5 M309 10.5 C307.09 15.14, 310.29 21, 309 31.5 M309 10.5 C308.45 15.61, 308.32 20.55, 309 31.5 M309 31.5 C307.26 36.91, 303.93 40.31, 298.5 42 M309 31.5 C308.27 38.98, 305.17 43.74, 298.5 42 M298.5 42 C237.34 41.63, 178.41 40.21, 10.5 42 M298.5 42 C231.32 41.05, 164.64 41.65, 10.5 42 M10.5 42 C4.81 42.34, 1.95 38.53, 0 31.5 M10.5 42 C5.41 43.74, -1.2 39.55, 0 31.5 M0 31.5 C0.31 23.26, -0.46 18.62, 0 10.5 M0 31.5 C0.32 26.95, 0.93 20.01, 0 10.5 M0 10.5 C-1.07 4.49, 4.11 -1.9, 10.5 0 M0 10.5 C0.53 4.51, 3.18 -0.11, 10.5 0" stroke="#1e1e1e" stroke-width="2" fill="none"></path></g><g stroke-linecap="round" transform="translate(476 763) rotate(0 154.5 21)"><path d="M10.5 0 C105.34 1.76, 200.79 0.79, 298.5 0 M10.5 0 C111.21 -1.81, 211.96 -2, 298.5 0 M298.5 0 C306.84 -1.13, 307.26 2.35, 309 10.5 M298.5 0 C304.55 1.17, 308.64 3.46, 309 10.5 M309 10.5 C309.06 13.76, 310.42 21.85, 309 31.5 M309 10.5 C309.86 16.14, 308.26 22.08, 309 31.5 M309 31.5 C307.65 39.58, 303.89 42.59, 298.5 42 M309 31.5 C306.86 37.99, 304.05 43.37, 298.5 42 M298.5 42 C192.06 43.83, 83.95 43.79, 10.5 42 M298.5 42 C202.4 42.54, 105.83 41.47, 10.5 42 M10.5 42 C5.11 40.86, 1.78 38.94, 0 31.5 M10.5 42 C2.24 41.8, -2.15 38.12, 0 31.5 M0 31.5 C-0.63 27.58, 1.72 21.34, 0 10.5 M0 31.5 C0.87 23.71, 0.45 14.82, 0 10.5 M0 10.5 C1.29 3.25, 4.82 -0.49, 10.5 0 M0 10.5 C-1.72 3.54, 5.19 -1.88, 10.5 0" stroke="#1e1e1e" stroke-width="2" fill="none"></path></g><g stroke-linecap="round" transform="translate(568 825) rotate(0 154.5 21)"><path d="M10.5 0 C80.39 -1.23, 152.72 -1.93, 298.5 0 M10.5 0 C117.89 0.23, 225.95 0.21, 298.5 0 M298.5 0 C303.76 -1.15, 308.17 4.52, 309 10.5 M298.5 0 C305.14 -0.04, 307.31 4.18, 309 10.5 M309 10.5 C310.36 20.41, 308.77 26.8, 309 31.5 M309 10.5 C308.42 16.44, 308.5 23.99, 309 31.5 M309 31.5 C307.39 39.09, 303.64 41.56, 298.5 42 M309 31.5 C307.55 39.87, 307.21 41.58, 298.5 42 M298.5 42 C208.43 45.55, 116.69 44.67, 10.5 42 M298.5 42 C209.16 42.27, 121.2 42.57, 10.5 42 M10.5 42 C5.28 42.44, -1.1 38.32, 0 31.5 M10.5 42 C1.35 41.62, -1.73 36.46, 0 31.5 M0 31.5 C1.62 23.42, 1.57 16.98, 0 10.5 M0 31.5 C0.28 26.03, 0.46 22.39, 0 10.5 M0 10.5 C1.32 3.01, 2.01 0.03, 10.5 0 M0 10.5 C1.69 1.62, 1.28 -0.32, 10.5 0" stroke="#1e1e1e" stroke-width="2" fill="none"></path></g><g stroke-linecap="round" transform="translate(673 225) rotate(0 154.5 21)"><path d="M10.5 0 C124.06 0.09, 235.57 -0.51, 298.5 0 M10.5 0 C118.48 2.85, 226.75 2.8, 298.5 0 M298.5 0 C307.2 1.13, 308.91 2.01, 309 10.5 M298.5 0 C303.77 -0.95, 307.02 3.06, 309 10.5 M309 10.5 C307.1 14.4, 310.88 18.51, 309 31.5 M309 10.5 C309.74 18.75, 309.05 24.68, 309 31.5 M309 31.5 C308.57 36.84, 306.53 41.46, 298.5 42 M309 31.5 C310.01 38.91, 306.17 42.12, 298.5 42 M298.5 42 C204.33 44.52, 111.58 44.9, 10.5 42 M298.5 42 C192.95 41.47, 88.52 42.03, 10.5 42 M10.5 42 C2.73 41.44, -1.25 37.08, 0 31.5 M10.5 42 C3.2 39.71, -1 36.8, 0 31.5 M0 31.5 C0.08 25.42, 1.04 15.35, 0 10.5 M0 31.5 C-0.23 25.33, 0.76 20.36, 0 10.5 M0 10.5 C-0.99 2.08, 4.42 -1.82, 10.5 0 M0 10.5 C0.04 4.64, 3.08 0.74, 10.5 0" stroke="#1e1e1e" stroke-width="2" fill="none"></path></g><g transform="translate(624 148) rotate(0 51.38333511352539 15.97222227882682)"><text x="0" y="0" font-family="Virgil, Segoe UI Emoji" font-size="25.55555564612292px" fill="#1e1e1e" text-anchor="start" style="white-space: pre;" direction="ltr" dominant-baseline="text-before-edge">Register</text></g><g transform="translate(332 240) rotate(0 107.60832977294922 12.5)"><text x="0" y="0" font-family="Virgil, Segoe UI Emoji" font-size="20px" fill="#1e1e1e" text-anchor="start" style="white-space: pre;" direction="ltr" dominant-baseline="text-before-edge">Enter your first name</text></g><g transform="translate(333 201) rotate(0 50.56666564941406 12.5)"><text x="0" y="0" font-family="Virgil, Segoe UI Emoji" font-size="20px" fill="#1e1e1e" text-anchor="start" style="white-space: pre;" direction="ltr" dominant-baseline="text-before-edge">first name</text></g><g transform="translate(692 232) rotate(0 105.55833435058594 12.5)"><text x="0" y="0" font-family="Virgil, Segoe UI Emoji" font-size="20px" fill="#1e1e1e" text-anchor="start" style="white-space: pre;" direction="ltr" dominant-baseline="text-before-edge">Enter your last name</text></g><g transform="translate(692 200) rotate(0 48.516666412353516 12.5)"><text x="0" y="0" font-family="Virgil, Segoe UI Emoji" font-size="20px" fill="#1e1e1e" text-anchor="start" style="white-space: pre;" direction="ltr" dominant-baseline="text-before-edge">last name</text></g><g stroke-linecap="round" transform="translate(599 903) rotate(0 89.5 21)"><path d="M10.5 0 C63.09 -0.73, 111.64 2.11, 168.5 0 M10.5 0 C61.36 -1.83, 111.69 -1.51, 168.5 0 M168.5 0 C175.06 0.2, 180.05 1.59, 179 10.5 M168.5 0 C174.71 -1.74, 179.07 1.5, 179 10.5 M179 10.5 C177.64 18.73, 180.89 27.41, 179 31.5 M179 10.5 C178.3 18.37, 178.6 27.24, 179 31.5 M179 31.5 C178.45 36.64, 176.96 40.71, 168.5 42 M179 31.5 C178.98 37.92, 175.12 42.28, 168.5 42 M168.5 42 C128.44 39.66, 90.83 39.37, 10.5 42 M168.5 42 C120.16 42.28, 72.76 43.96, 10.5 42 M10.5 42 C3.32 43.27, 0.88 38.06, 0 31.5 M10.5 42 C1.57 43.8, -1.27 39.37, 0 31.5 M0 31.5 C-2.07 23.05, -1.98 17.03, 0 10.5 M0 31.5 C-1.03 25.6, -0.5 19.87, 0 10.5 M0 10.5 C0.38 3.14, 4.05 0.45, 10.5 0 M0 10.5 C-0.55 5.69, 4.91 -2.24, 10.5 0" stroke="#1e1e1e" stroke-width="2" fill="none"></path></g><g transform="translate(648 912) rotate(0 37.81666564941406 12.5)"><text x="0" y="0" font-family="Virgil, Segoe UI Emoji" font-size="20px" fill="#1e1e1e" text-anchor="start" style="white-space: pre;" direction="ltr" dominant-baseline="text-before-edge">register</text></g><g transform="translate(568 966) rotate(0 145.97500610351562 11.028870875398866)"><text x="0" y="0" font-family="Virgil, Segoe UI Emoji" font-size="17.646193400638136px" fill="#1e1e1e" text-anchor="start" style="white-space: pre;" direction="ltr" dominant-baseline="text-before-edge">Already have an account? sign in.</text></g><g transform="translate(362 321.6431884765625) rotate(0 33.483333587646484 12.5)"><text x="0" y="0" font-family="Virgil, Segoe UI Emoji" font-size="20px" fill="#1e1e1e" text-anchor="start" style="white-space: pre;" direction="ltr" dominant-baseline="text-before-edge">Gender</text></g><g transform="translate(374 348.6431884765625) rotate(0 21.100000381469727 12.5)"><text x="0" y="0" font-family="Virgil, Segoe UI Emoji" font-size="20px" fill="#1e1e1e" text-anchor="start" style="white-space: pre;" direction="ltr" dominant-baseline="text-before-edge">male</text></g><g transform="translate(380 385.6431884765625) rotate(0 31.424999237060547 12.5)"><text x="0" y="0" font-family="Virgil, Segoe UI Emoji" font-size="20px" fill="#1e1e1e" text-anchor="start" style="white-space: pre;" direction="ltr" dominant-baseline="text-before-edge">female</text></g><g stroke-linecap="round" transform="translate(356 356.6431884765625) rotate(0 5.5 6.5)"><path d="M4.9 0.24 C5.95 -0.01, 6.89 0.16, 7.86 0.9 C8.82 1.65, 10.18 3.47, 10.69 4.72 C11.2 5.96, 11.38 7.11, 10.9 8.36 C10.41 9.62, 8.78 11.55, 7.79 12.24 C6.79 12.92, 6.04 12.73, 4.94 12.47 C3.83 12.22, 1.95 11.74, 1.15 10.71 C0.34 9.67, 0.11 7.6, 0.1 6.29 C0.1 4.97, 0.35 3.83, 1.11 2.83 C1.87 1.83, 3.95 0.64, 4.65 0.27 C5.36 -0.1, 5.3 0.52, 5.35 0.59 M5.66 -0.66 C6.68 -0.74, 8.09 0, 8.85 0.93 C9.6 1.85, 10.07 3.54, 10.2 4.9 C10.32 6.25, 10.04 7.73, 9.62 9.04 C9.19 10.35, 8.61 12.14, 7.64 12.74 C6.67 13.34, 4.98 13.1, 3.82 12.64 C2.66 12.18, 1.33 11.2, 0.67 9.97 C0.01 8.74, -0.3 6.69, -0.13 5.27 C0.04 3.85, 0.85 2.23, 1.69 1.45 C2.52 0.67, 4.31 0.69, 4.87 0.59 C5.44 0.49, 5.07 0.86, 5.08 0.86" stroke="#1e1e1e" stroke-width="2" fill="none"></path></g><g stroke-linecap="round" transform="translate(358 389.6431884765625) rotate(0 5.5 6.5)"><path d="M5.91 -0.04 C7.03 -0.07, 8.62 0.74, 9.45 1.7 C10.27 2.65, 10.78 4.33, 10.87 5.67 C10.96 7.02, 10.56 8.62, 9.98 9.76 C9.41 10.9, 8.44 12.11, 7.4 12.5 C6.35 12.89, 4.89 12.67, 3.74 12.07 C2.59 11.47, 1.01 10.14, 0.5 8.9 C-0.02 7.66, 0.31 5.87, 0.65 4.62 C0.99 3.37, 1.59 2.16, 2.54 1.4 C3.5 0.65, 5.74 0.21, 6.39 0.08 C7.03 -0.06, 6.42 0.42, 6.42 0.59 M6.54 0.01 C7.67 0.2, 9.54 0.98, 10.16 2.01 C10.78 3.04, 10.23 4.69, 10.27 6.21 C10.3 7.74, 11 10.1, 10.38 11.18 C9.77 12.26, 7.94 12.66, 6.57 12.7 C5.2 12.74, 3.33 12.2, 2.17 11.42 C1.01 10.63, 0.03 9.29, -0.38 8 C-0.79 6.7, -0.78 4.72, -0.28 3.64 C0.23 2.57, 1.52 2.05, 2.66 1.55 C3.79 1.05, 5.93 0.76, 6.53 0.65 C7.12 0.53, 6.32 0.78, 6.22 0.87" stroke="#1e1e1e" stroke-width="2" fill="none"></path></g><g transform="translate(719 290.6431884765625) rotate(0 51.20000076293945 12.5)"><text x="0" y="0" font-family="Virgil, Segoe UI Emoji" font-size="20px" fill="#1e1e1e" text-anchor="start" style="white-space: pre;" direction="ltr" dominant-baseline="text-before-edge">Family role</text></g><g stroke-linecap="round" transform="translate(709 333.7076416015625) rotate(0 83 109.5)"><path d="M32 0 C58.95 -0.65, 89.06 1.76, 134 0 M32 0 C66.15 -0.88, 99.39 -1.23, 134 0 M134 0 C155.96 -0.28, 166.49 11.75, 166 32 M134 0 C154.59 -1.34, 167.05 9.51, 166 32 M166 32 C167.98 80.85, 168.11 131.01, 166 187 M166 32 C165.4 83.62, 166.99 136.21, 166 187 M166 187 C164.57 206.71, 156.34 220.9, 134 219 M166 187 C166.49 206.59, 154.04 217.82, 134 219 M134 219 C110.77 217.72, 87.15 220.54, 32 219 M134 219 C93.87 218.77, 54.53 218.15, 32 219 M32 219 C11.35 219.65, 0.16 206.66, 0 187 M32 219 C9.39 217.3, 0.16 208.36, 0 187 M0 187 C-0.68 139.71, 1.74 93.69, 0 32 M0 187 C-1.22 139.02, 0.33 91.01, 0 32 M0 32 C0.16 11.57, 11.07 1.17, 32 0 M0 32 C-2.2 11.29, 11.32 1.04, 32 0" stroke="#1e1e1e" stroke-width="2" fill="none"></path></g><g transform="translate(755 352.7076416015625) rotate(0 29.66666603088379 12.5)"><text x="0" y="0" font-family="Virgil, Segoe UI Emoji" font-size="20px" fill="#1e1e1e" text-anchor="start" style="white-space: pre;" direction="ltr" dominant-baseline="text-before-edge">select</text></g><g transform="translate(758 395.7076416015625) rotate(0 31.883333206176758 12.5)"><text x="0" y="0" font-family="Virgil, Segoe UI Emoji" font-size="20px" fill="#1e1e1e" text-anchor="start" style="white-space: pre;" direction="ltr" dominant-baseline="text-before-edge">father</text></g><g transform="translate(769 470.7076416015625) rotate(0 15.641666412353516 12.5)"><text x="0" y="0" font-family="Virgil, Segoe UI Emoji" font-size="20px" fill="#1e1e1e" text-anchor="start" style="white-space: pre;" direction="ltr" dominant-baseline="text-before-edge">son</text></g><g transform="translate(755 436.7076416015625) rotate(0 32.233333587646484 12.5)"><text x="0" y="0" font-family="Virgil, Segoe UI Emoji" font-size="20px" fill="#1e1e1e" text-anchor="start" style="white-space: pre;" direction="ltr" dominant-baseline="text-before-edge">mother</text></g><g transform="translate(748 497.7076416015625) rotate(0 43.40833282470703 12.5)"><text x="0" y="0" font-family="Virgil, Segoe UI Emoji" font-size="20px" fill="#1e1e1e" text-anchor="start" style="white-space: pre;" direction="ltr" dominant-baseline="text-before-edge">daughter</text></g><g stroke-linecap="round" transform="translate(443 603.3623046875) rotate(0 79 21)"><path d="M10.5 0 C41.73 -1.66, 73.81 -1.57, 147.5 0 M10.5 0 C53.37 -2.19, 94.02 -1.84, 147.5 0 M147.5 0 C154.09 -1.56, 159.95 1.97, 158 10.5 M147.5 0 C153.84 0.71, 156.82 4.86, 158 10.5 M158 10.5 C156.19 18.23, 158.2 22.52, 158 31.5 M158 10.5 C158.1 15.8, 157 21.69, 158 31.5 M158 31.5 C158.24 39.11, 154.71 40.38, 147.5 42 M158 31.5 C160.04 38.65, 153.44 42.85, 147.5 42 M147.5 42 C101.99 41.56, 57.11 38.93, 10.5 42 M147.5 42 C93.24 41.54, 39.76 41.92, 10.5 42 M10.5 42 C4.89 41.81, 1.4 36.59, 0 31.5 M10.5 42 C3.94 43.42, -1.37 40.34, 0 31.5 M0 31.5 C1.06 22.33, 0.34 15.1, 0 10.5 M0 31.5 C-0.51 24.14, -0.29 16.46, 0 10.5 M0 10.5 C1.04 3.2, 2.83 0.75, 10.5 0 M0 10.5 C-0.87 1.44, 2.01 0.91, 10.5 0" stroke="#1e1e1e" stroke-width="2" fill="none"></path></g><g stroke-linecap="round" transform="translate(770 605.3623046875) rotate(0 79 21)"><path d="M10.5 0 C47.41 -1.65, 85.72 -1.16, 147.5 0 M10.5 0 C46.11 1.08, 82.8 1.68, 147.5 0 M147.5 0 C153.84 0.19, 156.11 1.56, 158 10.5 M147.5 0 C155.36 -0.07, 160.3 4.91, 158 10.5 M158 10.5 C159.05 16.4, 158.32 17.91, 158 31.5 M158 10.5 C157.31 16.81, 158.54 24.48, 158 31.5 M158 31.5 C156.74 40.34, 154.95 42.92, 147.5 42 M158 31.5 C156.31 39.61, 156.17 42.97, 147.5 42 M147.5 42 C106.31 44.71, 66.85 42.12, 10.5 42 M147.5 42 C105.26 42.71, 63.92 42.3, 10.5 42 M10.5 42 C5.29 43.85, -1.76 40.23, 0 31.5 M10.5 42 C4.63 43.38, -1.06 40.44, 0 31.5 M0 31.5 C-1.38 24.23, 1.67 18.56, 0 10.5 M0 31.5 C0.5 26.59, -0.02 21.2, 0 10.5 M0 10.5 C-1.7 1.78, 2.44 0.61, 10.5 0 M0 10.5 C0.94 4.84, 4.05 -1.03, 10.5 0" stroke="#1e1e1e" stroke-width="2" fill="none"></path></g><g transform="translate(374 609.948974609375) rotate(0 22.325000762939453 12.5)"><text x="0" y="0" font-family="Virgil, Segoe UI Emoji" font-size="20px" fill="#1e1e1e" text-anchor="start" style="white-space: pre;" direction="ltr" dominant-baseline="text-before-edge">DOB</text></g><g transform="translate(722 608.9852905273438) rotate(0 21.141666412353516 12.5)"><text x="0" y="0" font-family="Virgil, Segoe UI Emoji" font-size="20px" fill="#1e1e1e" text-anchor="start" style="white-space: pre;" direction="ltr" dominant-baseline="text-before-edge">Tel </text></g><g transform="translate(374 707.1680297851562) rotate(0 24.566667556762695 12.5)"><text x="0" y="0" font-family="Virgil, Segoe UI Emoji" font-size="20px" fill="#1e1e1e" text-anchor="start" style="white-space: pre;" direction="ltr" dominant-baseline="text-before-edge">Email</text></g><g transform="translate(371 767.1680297851562) rotate(0 45.766666412353516 12.5)"><text x="0" y="0" font-family="Virgil, Segoe UI Emoji" font-size="20px" fill="#1e1e1e" text-anchor="start" style="white-space: pre;" direction="ltr" dominant-baseline="text-before-edge">Password</text></g><g transform="translate(372 824.1680297851562) rotate(0 86.19166564941406 12.5)"><text x="0" y="0" font-family="Virgil, Segoe UI Emoji" font-size="20px" fill="#1e1e1e" text-anchor="start" style="white-space: pre;" direction="ltr" dominant-baseline="text-before-edge">Re-type password</text></g></svg>